<svg id="visual" viewBox="0 0 900 600" width="900" height="600" xmlns="http://www.w3.org/2000/svg" xmlns:xlink="http://www.w3.org/1999/xlink" version="1.1"><rect x="0" y="0" width="900" height="600" fill="#001220"></rect><path d="M0 402L21.5 407.2C43 412.3 86 422.7 128.8 422.8C171.7 423 214.3 413 257.2 414C300 415 343 427 385.8 429.5C428.7 432 471.3 425 514.2 423.5C557 422 600 426 642.8 418.2C685.7 410.3 728.3 390.7 771.2 385.5C814 380.3 857 389.7 878.5 394.3L900 399L900 601L878.5 601C857 601 814 601 771.2 601C728.3 601 685.7 601 642.8 601C600 601 557 601 514.2 601C471.3 601 428.7 601 385.8 601C343 601 300 601 257.2 601C214.3 601 171.7 601 128.8 601C86 601 43 601 21.5 601L0 601Z" fill="#fa7268"></path><path d="M0 419L21.5 423.5C43 428 86 437 128.8 435.7C171.7 434.3 214.3 422.7 257.2 428.2C300 433.7 343 456.3 385.8 464.2C428.7 472 471.3 465 514.2 463.7C557 462.3 600 466.7 642.8 456.7C685.7 446.7 728.3 422.3 771.2 410.5C814 398.7 857 399.3 878.5 399.7L900 400L900 601L878.5 601C857 601 814 601 771.2 601C728.3 601 685.7 601 642.8 601C600 601 557 601 514.2 601C471.3 601 428.7 601 385.8 601C343 601 300 601 257.2 601C214.3 601 171.7 601 128.8 601C86 601 43 601 21.5 601L0 601Z" fill="#ef5f67"></path><path d="M0 440L21.5 450.5C43 461 86 482 128.8 483.7C171.7 485.3 214.3 467.7 257.2 465C300 462.3 343 474.7 385.8 482.5C428.7 490.3 471.3 493.7 514.2 491.7C557 489.7 600 482.3 642.8 477C685.7 471.7 728.3 468.3 771.2 474.3C814 480.3 857 495.7 878.5 503.3L900 511L900 601L878.5 601C857 601 814 601 771.2 601C728.3 601 685.7 601 642.8 601C600 601 557 601 514.2 601C471.3 601 428.7 601 385.8 601C343 601 300 601 257.2 601C214.3 601 171.7 601 128.8 601C86 601 43 601 21.5 601L0 601Z" fill="#e34c67"></path><path d="M0 538L21.5 537.2C43 536.3 86 534.7 128.8 529.8C171.7 525 214.3 517 257.2 509C300 501 343 493 385.8 497.7C428.7 502.3 471.3 519.7 514.2 520C557 520.3 600 503.7 642.8 501.5C685.7 499.3 728.3 511.7 771.2 519.2C814 526.7 857 529.3 878.5 530.7L900 532L900 601L878.5 601C857 601 814 601 771.2 601C728.3 601 685.7 601 642.8 601C600 601 557 601 514.2 601C471.3 601 428.7 601 385.8 601C343 601 300 601 257.2 601C214.3 601 171.7 601 128.8 601C86 601 43 601 21.5 601L0 601Z" fill="#d53867"></path><path d="M0 546L21.5 543C43 540 86 534 128.8 531.7C171.7 529.3 214.3 530.7 257.2 535.8C300 541 343 550 385.8 553C428.7 556 471.3 553 514.2 549.5C557 546 600 542 642.8 543.7C685.7 545.3 728.3 552.7 771.2 556.5C814 560.3 857 560.7 878.5 560.8L900 561L900 601L878.5 601C857 601 814 601 771.2 601C728.3 601 685.7 601 642.8 601C600 601 557 601 514.2 601C471.3 601 428.7 601 385.8 601C343 601 300 601 257.2 601C214.3 601 171.7 601 128.8 601C86 601 43 601 21.5 601L0 601Z" fill="#c62368"></path></svg>